<svg xmlns="http://www.w3.org/2000/svg" width="51.988" height="51.529" viewBox="0 0 51.988 51.529"><path id="Icon_weather-stars" data-name="Icon weather-stars" d="M6.444,37.332A6.36,6.36,0,0,0,10.9,35.308a6.343,6.343,0,0,0,1.835-4.535A6.549,6.549,0,0,0,19,37.332a6.549,6.549,0,0,0-6.262,6.559A6.234,6.234,0,0,0,10.9,39.357a6.36,6.36,0,0,0-4.454-2.024ZM12.733,17.9A12.405,12.405,0,0,0,21.4,13.93a12.356,12.356,0,0,0,3.563-8.854,12.356,12.356,0,0,0,3.563,8.854A12.528,12.528,0,0,0,37.215,17.9a12.511,12.511,0,0,0-6.181,1.916,12.971,12.971,0,0,0-4.454,4.67,12.693,12.693,0,0,0-1.62,6.289A12.418,12.418,0,0,0,21.4,21.892,12.324,12.324,0,0,0,12.733,17.9Zm8.962,29.071a9.642,9.642,0,0,0,9.2-9.636,9.644,9.644,0,0,0,9.177,9.636A9.644,9.644,0,0,0,30.9,56.6a9.3,9.3,0,0,0-2.672-6.667A9.455,9.455,0,0,0,21.695,46.968ZM40.077,34.174a9.6,9.6,0,0,0,9.15-9.663,9.642,9.642,0,0,0,9.2,9.636,9.642,9.642,0,0,0-9.2,9.636,9.547,9.547,0,0,0-9.15-9.609Z" transform="translate(-6.444 -5.076)" fill="#4d4d4d"></path></svg>